# xmcd
#
# Track frame offsets: 
#        150
#        36810
#        50550
#        62681
#        80099
#        100512
#        125277
#        140353
#        162252
#        178057
#        191496
#        206125
#        222208
#        236764
#
# Disc length: 3401 seconds
#
# Revision: 0
# Processed by: cddbd v1.5.2PL0 Copyright (c) Steve Scherf et al.
# Submitted via: ExactAudioCopy v0.99pb1
#
DISCID=c70d470e
DTITLE=Little Mack Simmons - The Last Sessions
DYEAR=2000
DGENRE=Blues
TTITLE0=Mannish Boy - Hoochie Coochie Man
TTITLE1=Eyesight To The Blind
TTITLE2=No More Doggin'
TTITLE3=I Can't Stop Lovin' You - Honest I Do
TTITLE4=Shake Rattle And Roll
TTITLE5=Why Do You Treat Me The Way You Do - Just A Feeling
TTITLE6=I Don't Know
TTITLE7=Save For The Children - Help Me
TTITLE8=Dead President
TTITLE9=La Cucaracha
TTITLE10=Never Leave My Homework Undone
TTITLE11=Driving Wheel
TTITLE12=Everything's Gonna Be Alright
TTITLE13=You Know I Love You
EXTD=
EXTT0=
EXTT1=
EXTT2=
EXTT3=
EXTT4=
EXTT5=
EXTT6=
EXTT7=
EXTT8=
EXTT9=
EXTT10=
EXTT11=
EXTT12=
EXTT13=
PLAYORDER=
